<svg xmlns="http://www.w3.org/2000/svg" xmlns:xlink="http://www.w3.org/1999/xlink" viewBox="0 0 85 85" fill="#fff" fill-rule="evenodd" stroke="#000" stroke-linecap="round" stroke-linejoin="round"><use xlink:href="#A" x="2.5" y="2.5"/><symbol id="A" overflow="visible"><g stroke="none"><path d="M0 41.579C0 20.293 17.84 3.157 40 3.157s40 17.136 40 38.422S62.16 80 40 80 0 62.864 0 41.579z" fill="#2c6ca8"/><path d="M0 38.422C0 17.136 17.84 0 40 0s40 17.136 40 38.422-17.84 38.422-40 38.422S0 59.707 0 38.422z" fill="#3da1ff"/><path d="M36.714 15.53h6.572v46.036h-6.572z"/><path d="M31.811 17.829L40 4.205l8.189 13.624H31.811zm0 41.439L40 72.892l8.189-13.624H31.811zm26.75-24.003h16.944v6.313H58.561z"/><path d="M60.953 46.288L46.77 38.422l14.183-7.866v15.732zM4.482 35.265h16.944v6.313H4.482z"/><path d="M19.047 46.288l14.183-7.866-14.183-7.866v15.732z"/></g></symbol></svg>